<?xml version="1.0" encoding="UTF-8" standalone="no"?>
<!-- Uploaded to: SVG Repo, www.svgrepo.com, Generator: SVG Repo Mixer Tools -->

<svg
   fill="#FFFFFF"
   height="800px"
   width="800px"
   version="1.1"
   id="Capa_1"
   viewBox="0 0 266.578 266.578"
   xml:space="preserve"
   sodipodi:docname="family.svg"
   inkscape:version="1.4.2 (f4327f4, 2025-05-13)"
   xmlns:inkscape="http://www.inkscape.org/namespaces/inkscape"
   xmlns:sodipodi="http://sodipodi.sourceforge.net/DTD/sodipodi-0.dtd"
   xmlns="http://www.w3.org/2000/svg"
   xmlns:svg="http://www.w3.org/2000/svg"><defs
   id="defs6" /><sodipodi:namedview
   id="namedview6"
   pagecolor="#000000"
   bordercolor="#000000"
   borderopacity="0.25"
   inkscape:showpageshadow="2"
   inkscape:pageopacity="0.0"
   inkscape:pagecheckerboard="0"
   inkscape:deskcolor="#d1d1d1"
   inkscape:zoom="0.91875"
   inkscape:cx="399.45578"
   inkscape:cy="400"
   inkscape:window-width="1920"
   inkscape:window-height="974"
   inkscape:window-x="-11"
   inkscape:window-y="-11"
   inkscape:window-maximized="1"
   inkscape:current-layer="Capa_1" />
<g
   id="g6"
   transform="matrix(0.84475745,0,0,0.84475745,20.692257,20.692202)"
   style="stroke:#ffffff;stroke-opacity:1;stroke-width:9.8614845;stroke-dasharray:none">
	<path
   d="m 38.136,61.876 c 15.093,0 27.372,-12.278 27.372,-27.371 C 65.508,19.41 53.23,7.13 38.136,7.13 c -15.092,0 -27.371,12.28 -27.371,27.375 0,15.093 12.279,27.371 27.371,27.371 z m 0,-45.701 c 10.105,0 18.326,8.223 18.326,18.33 0,10.104 -8.221,18.326 -18.326,18.326 -10.104,0 -18.326,-8.221 -18.326,-18.326 0,-10.107 8.222,-18.33 18.326,-18.33 z"
   id="path1"
   style="stroke:#ffffff;stroke-opacity:1;stroke-width:9.8614845;stroke-dasharray:none" />
	<path
   d="m 11.787,173.464 v 81.461 c 0,2.498 2.025,4.523 4.522,4.523 2.498,0 4.522,-2.024 4.522,-4.523 v -83.79 c 0,-0.069 -0.007,-0.138 -0.01,-0.207 0.007,-1.624 -0.861,-3.199 -2.395,-4.016 -5.786,-3.081 -9.38,-9.04 -9.38,-15.553 v -49.717 c 0,-9.703 7.892,-17.596 17.593,-17.596 H 49.82 c 9.701,0 17.593,7.894 17.593,17.596 v 49.717 c 0,6.511 -3.597,12.471 -9.386,15.553 -1.565,0.833 -2.435,2.454 -2.392,4.113 -10e-4,0.037 -0.005,0.072 -0.005,0.109 v 83.79 c 0,2.498 2.025,4.523 4.523,4.523 2.498,0 4.522,-2.024 4.522,-4.523 v -81.468 c 7.332,-4.935 11.784,-13.171 11.784,-22.097 V 101.642 C 76.459,86.952 64.509,75 49.821,75 H 26.639 C 11.95,75.002 0,86.954 0,101.644 v 49.717 c 0,8.931 4.453,17.17 11.787,22.103 z"
   id="path2"
   style="stroke:#ffffff;stroke-opacity:1;stroke-width:9.8614845;stroke-dasharray:none" />
	<path
   d="m 124.779,123.669 c 15.095,0 27.375,-12.282 27.375,-27.377 0,-15.095 -12.28,-27.375 -27.375,-27.375 -15.092,0 -27.371,12.28 -27.371,27.375 0,15.095 12.279,27.377 27.371,27.377 z m 0,-45.707 c 10.107,0 18.33,8.223 18.33,18.329 0,10.108 -8.223,18.332 -18.33,18.332 -10.104,0 -18.326,-8.224 -18.326,-18.332 10e-4,-10.106 8.222,-18.329 18.326,-18.329 z"
   id="path3"
   style="stroke:#ffffff;stroke-opacity:1;stroke-width:9.8614845;stroke-dasharray:none" />
	<path
   d="m 105.559,211.485 v 43.44 c 0,2.498 2.025,4.523 4.523,4.523 2.498,0 4.522,-2.024 4.522,-4.523 v -45.768 c 0,-0.07 -0.007,-0.138 -0.01,-0.207 0.007,-1.624 -0.861,-3.198 -2.394,-4.015 -5.789,-3.084 -9.385,-9.044 -9.385,-15.553 V 163.43 c 0,-9.703 7.893,-17.596 17.593,-17.596 h 8.925 c 9.701,0 17.593,7.893 17.593,17.596 v 25.952 c 0,6.509 -3.597,12.468 -9.385,15.554 -1.564,0.833 -2.434,2.454 -2.391,4.113 0,0.036 -0.005,0.071 -0.005,0.108 v 45.768 c 0,2.498 2.025,4.523 4.523,4.523 2.498,0 4.523,-2.024 4.523,-4.523 v -43.447 c 7.329,-4.939 11.78,-13.173 11.78,-22.096 V 163.43 c 0,-14.69 -11.95,-26.641 -26.638,-26.641 h -8.925 c -14.688,0 -26.638,11.951 -26.638,26.641 v 25.952 c -10e-4,8.929 4.454,17.167 11.789,22.103 z"
   id="path4"
   style="stroke:#ffffff;stroke-opacity:1;stroke-width:9.8614845;stroke-dasharray:none" />
	<path
   d="m 216.367,76.136 c 15.093,0 27.371,-12.277 27.371,-27.369 0,-15.099 -12.278,-27.383 -27.371,-27.383 -15.094,0 -27.374,12.284 -27.374,27.383 0,15.092 12.28,27.369 27.374,27.369 z m 0,-45.707 c 10.105,0 18.326,8.227 18.326,18.338 0,10.103 -8.222,18.323 -18.326,18.323 -10.107,0 -18.329,-8.22 -18.329,-18.323 0,-10.111 8.222,-18.338 18.329,-18.338 z"
   id="path5"
   style="stroke:#ffffff;stroke-opacity:1;stroke-width:9.8614845;stroke-dasharray:none" />
	<path
   d="m 170.675,189.69 h 26.467 v 65.236 c 0,2.498 2.025,4.523 4.523,4.523 2.498,0 4.523,-2.024 4.523,-4.523 v -69.759 c 0,-0.313 -0.032,-0.618 -0.092,-0.912 -0.031,-0.147 -0.067,-0.292 -0.112,-0.433 -0.573,-1.841 -2.29,-3.178 -4.319,-3.178 -0.001,0 -0.001,0 -0.002,0 h -23.67 l 20.495,-40.994 c 0.314,-0.627 0.478,-1.32 0.478,-2.022 v -21.926 c 0,-9.592 7.807,-17.396 17.402,-17.396 9.594,0 17.399,7.804 17.399,17.396 v 21.926 c 0,0.703 0.163,1.395 0.477,2.022 l 20.495,40.994 h -23.485 c 0,0 -0.001,0 -0.002,0 -2.029,0 -3.747,1.337 -4.319,3.178 -0.044,0.142 -0.081,0.286 -0.111,0.433 -0.061,0.294 -0.092,0.599 -0.092,0.912 v 69.759 c 0,2.498 2.024,4.523 4.522,4.523 2.498,0 4.523,-2.024 4.523,-4.523 V 189.69 h 26.282 c 1.567,0 3.023,-0.812 3.848,-2.145 0.823,-1.333 0.898,-2.998 0.198,-4.4 L 242.812,136.56 v -20.859 c 0,-14.58 -11.862,-26.441 -26.443,-26.441 -14.583,0 -26.447,11.861 -26.447,26.441 v 20.859 l -23.29,46.585 c -0.701,1.402 -0.626,3.066 0.198,4.4 0.822,1.333 2.278,2.145 3.845,2.145 z"
   id="path6"
   style="stroke:#ffffff;stroke-opacity:1;stroke-width:9.8614845;stroke-dasharray:none" />
</g>
</svg>
